<svg xmlns="http://www.w3.org/2000/svg" width="40" height="26" viewBox="0 0 40 26" xmlns:xlink="http://www.w3.org/1999/xlink"><defs><path id="a" d="M0 5.997h33.955V0H0z"/></defs><g fill="none" fill-rule="evenodd"><rect width="40" height="26" fill="#FFF" rx="2.661"/><g transform="translate(3 10)"><mask id="b" fill="#fff"><use xlink:href="#a"/></mask><path fill="#067AA6" d="M33.955 0h-2.427L29.89 1.93 28.25 0h-2.426l2.602 2.936-2.602 3.06h2.355l1.71-2.012 1.71 2.013h2.354l-2.6-3.06L33.954 0zM18.793 5.997h6.126v-1.45H20.54v-.823h4.177V2.28H20.54v-.83h4.376V0H18.79v5.997zm-5.115-2.625c-.046.11-.062.72-.13.72-.07 0-.086-.61-.132-.72L11.966 0H8.92v5.997h1.697V1.795c0-.176-.077-.36-.077-.46 0-.043.008-.068.046-.068.054 0 .116.184.154.276l2.113 4.454h1.388L16.2 1.56c.038-.092.1-.277.153-.277.03 0 .047.017.047.05 0 .126-.077.294-.077.48v4.184h1.696V0h-2.893l-1.45 3.372zm-10.44.075l.94-2.105h.277l.94 2.105H3.237zM2.824 0L0 5.997h2.044L2.586 5h3.468l.54.997H8.64L5.806 0H2.824z" mask="url(#b)"/></g></g></svg>