<svg xmlns="http://www.w3.org/2000/svg" width="40" height="24" viewBox="0 0 40 24"><g fill="none" fill-rule="evenodd"><rect width="40" height="24" fill="#FFF" rx="2.661"/><g fill="#000"><text font-family="ProximaNova-Bold, Proxima Nova" font-size="7.096" font-weight="bold" letter-spacing="-.284" transform="translate(6 2)"><tspan x="1.437" y="17.416">BOLET</tspan> <tspan x="21.959" y="17.416" letter-spacing="-.227">O</tspan></text><path d="M7.164 3.074h.89V13.69h-.89zm1.776 0h.89V13.69h-.89zm1.778 0h.89V13.69h-.89z"/><path d="M11.607 3.074h.89V13.69h-.89zm2.666 0h.89V13.69h-.89zm2.665 0h.89V13.69h-.89zm1.777 0h.89V13.69h-.89z"/><path d="M19.604 3.074h.89V13.69h-.89zm2.666 0h.89V13.69h-.89zm1.777 0h.89V13.69h-.89zm1.777 0h.89V13.69h-.89zm1.776 0h.89V13.69h-.89z"/><path d="M28.49 3.074h.89V13.69h-.89zm2.665 0h.89V13.69h-.89zm1.778 0h.89V13.69h-.89z"/></g></g></svg>