<svg xmlns="http://www.w3.org/2000/svg" width="40" height="24" viewBox="0 0 40 24"><g fill="none" fill-rule="evenodd"><rect width="40" height="24" fill="#FFF" rx="2.661"/><path fill="#006095" d="M21.672 19.88c4.314.02 8.252-3.518 8.252-7.823 0-4.707-3.938-7.96-8.252-7.96H17.96c-4.367 0-7.96 3.254-7.96 7.96 0 4.306 3.593 7.844 7.96 7.823h3.712"/><path fill="#FFF" d="M19.615 16.25V7.7c1.718.66 2.938 2.324 2.94 4.275-.002 1.95-1.222 3.614-2.94 4.274m-6.217-4.276c.004-1.95 1.222-3.612 2.94-4.273v8.546c-1.718-.66-2.936-2.322-2.94-4.272m4.58-7.225c-3.99 0-7.223 3.234-7.224 7.224 0 3.99 3.233 7.222 7.223 7.223 3.99 0 7.223-3.234 7.224-7.223 0-3.99-3.232-7.223-7.222-7.225"/></g></svg>