<svg xmlns="http://www.w3.org/2000/svg" width="40" height="26" viewBox="0 0 40 26"><g fill="none" fill-rule="evenodd"><rect width="40" height="26" fill="#FFF" rx="2.661"/><path d="M15.028 12.216l-4.903 2.113c-.008-.086-.012-.17-.012-.258 0-1.55 1.258-2.808 2.808-2.808.84 0 1.595.368 2.11.95zm-2.107-3.05c2.316 0 4.255 1.6 4.774 3.754l-1.978.865v-.004l-2.024.89-4.854 2.124c-.52-.78-.823-1.714-.823-2.72 0-2.71 2.198-4.908 4.908-4.908zm3.43 8.418c-1.756 1.668-4.08 1.832-6.124.59l1.154-1.753c1.163.696 2.33.584 3.504-.337l1.467 1.502m2-1.215l-.013-9.283h1.76v9.03c0 .088.01.164.123.208l1.53.595-.69 1.792-1.79-.758c-.68-.287-.92-.704-.92-1.585m6.62-.157C24.313 15.7 23.888 14.9 23.888 14c0-.8.336-1.52.874-2.03l-1.135-1.84c-1.142.904-1.875 2.3-1.875 3.87 0 1.693.85 3.185 2.148 4.075l1.073-1.862m.767-4.85c.297-.105.616-.163.95-.163 1.198 0 2.22.754 2.62 1.813l2.177-.18c-.526-2.164-2.474-3.77-4.798-3.77-.66 0-1.285.13-1.86.36l.91 1.94m.95 5.44c-.237 0-.465-.03-.683-.085l-.854 1.977c.483.158 1 .244 1.536.244 2.657 0 4.824-2.104 4.93-4.737l-2.135-.067c-.07 1.484-1.296 2.665-2.797 2.665z" fill="#000"/></g></svg>