<svg xmlns="http://www.w3.org/2000/svg" width="40" height="26" viewBox="0 0 40 26" xmlns:xlink="http://www.w3.org/1999/xlink"><defs><path id="a" d="M0 14.996h34.42V.016H0z"/></defs><g fill="none" fill-rule="evenodd"><rect width="40" height="26" fill="#FFF" rx="2.661"/><g transform="translate(3 6)"><mask id="b" fill="#fff"><use xlink:href="#a"/></mask><path fill="#842124" d="M9.45.017H5.88c-1.577.075-2.865.71-3.237 2.02-.194.682-.3 1.432-.452 2.14C1.42 7.774.74 11.472 0 15h27.773c2.147 0 3.62-.454 4.02-2.158.185-.79.362-1.688.54-2.558.69-3.39 1.38-6.782 2.087-10.267H9.45" mask="url(#b)"/></g><path fill="#FFF" d="M26.805 14.962c-.385.377-1.468.484-1.357-.418.092-.75.908-.91 1.792-.8-.065.41-.14.93-.435 1.218zm-1.218-2.924c-.037.207-.093.394-.14.592.443-.11 1.817-.45 1.95.14.044.195-.032.403-.087.556-1.243-.118-2.257.09-2.523.974-.18.594.02 1.177.4 1.34.732.314 1.623-.045 1.932-.54-.035.172-.065.345-.055.558h.644c.006-.617.096-1.116.19-1.67.08-.473.234-.94.21-1.358-.056-.955-1.638-.617-2.524-.592zm6.456 3.22c-.504.01-.754-.3-.766-.818-.02-.906.377-1.91 1.184-2.002.377-.042.65.046.924.14-.252 1.017-.16 2.654-1.34 2.68zm1.67-4.786c-.063.562-.15 1.103-.26 1.618-1.836-.58-2.96.77-2.94 2.437.003.322.058.642.26.87.347.393 1.342.487 1.844.156.098-.064.197-.18.26-.26.05-.06.127-.22.14-.175-.026.177-.065.34-.07.54h.68c.13-1.876.535-3.48.835-5.186h-.748zM14.556 14.98c-.4.423-1.385.417-1.462-.297-.034-.31.082-.636.14-.957.057-.325.1-.637.156-.922.393-.482 1.552-.54 1.67.26.1.696-.174 1.564-.505 1.915zm.59-2.942c-.632-.238-1.404.046-1.74.316.003.012-.006.014-.016.015.004-.007.01-.01.016-.017v-.003c.006-.115.047-.196.052-.312h-.644c-.268 1.785-.586 3.52-.922 5.238h.748c.11-.67.18-1.375.33-2 .172.658 1.288.532 1.76.277.97-.525 1.72-3.025.416-3.515zm3.55 1.253H16.94c.054-.402.418-.846.99-.87.54-.02.925.2.766.87zm-.712-1.32c-.54.04-.998.197-1.323.54-.397.42-.72 1.347-.625 2.192.135 1.206 1.636 1.163 2.836.87.02-.21.073-.392.106-.59-.495.184-1.354.442-1.862.12-.384-.242-.387-.857-.26-1.39.806-.027 1.644-.022 2.452 0 .05-.38.198-.793.07-1.167-.17-.494-.776-.622-1.392-.574zm-6.578.07c-.02.002-.02.027-.018.05-.164 1.234-.387 2.41-.626 3.57h.75c.18-1.243.385-2.458.643-3.62h-.748zm19.524.017c-.662-.33-1.212.224-1.427.556.06-.17.064-.4.12-.574h-.66c-.178 1.242-.393 2.45-.644 3.62h.764c.005-.48.1-.836.174-1.306.16-1.005.394-2.107 1.565-1.775.04-.17.055-.364.104-.523zm-8.406 2.75c-.068-.18-.086-.473-.07-.697.04-.504.223-1.116.506-1.393.39-.383 1.16-.32 1.774-.105.02-.207.06-.39.087-.59-1.005-.166-1.96-.063-2.47.47-.495.52-.82 1.717-.59 2.47.27.88 1.476.93 2.453.59.044-.176.067-.373.105-.556-.534.278-1.555.422-1.793-.19zm-.417-2.768c-.664-.27-1.185.184-1.427.61.055-.19.077-.41.122-.61h-.662c-.16 1.253-.4 2.43-.626 3.62h.748c.105-.707.15-1.658.383-2.333.186-.54.673-1 1.375-.748.01-.2.067-.35.087-.54zm-12.06-1.463c-.106.694-.227 1.374-.347 2.054-.776.01-1.567.04-2.315-.017.14-.664.243-1.37.383-2.036h-.835c-.3 1.697-.57 3.42-.905 5.082h.853c.135-.854.26-1.715.437-2.524.727-.018 1.598-.05 2.297.017-.144.842-.32 1.654-.453 2.506h.854c.274-1.723.562-3.43.905-5.083h-.87zm2.124.766c.15-.103.343-.57.123-.766-.07-.06-.185-.08-.348-.052-.15.026-.237.077-.295.157-.096.13-.183.518-.036.662.142.14.462.066.557 0z"/></g></svg>