<svg xmlns="http://www.w3.org/2000/svg" width="46" height="28" viewBox="0 0 46 28"><g fill="none" fill-rule="evenodd" transform="translate(.68)"><rect width="44.396" height="28" fill="#FFF" rx="3.168"/><path d="M5 0h35.692v29H5z"/><g fill-rule="nonzero"><path fill="#FF5F00" d="M19.5 7.808h7.808v13.385H19.5z"/><path fill="#EB001B" d="M19.423 14.5c-.003-2.737 1.26-5.325 3.423-7.016-3.675-2.875-8.95-2.456-12.122.962-3.17 3.42-3.17 8.69 0 12.108 3.17 3.418 8.447 3.837 12.122.962-2.163-1.69-3.425-4.277-3.423-7.015z"/><path fill="#F79E1B" d="M37.346 14.5c0 3.417-1.96 6.533-5.045 8.026-3.085 1.493-6.757 1.1-9.454-1.01 2.162-1.693 3.424-4.278 3.424-7.016 0-2.737-1.262-5.323-3.424-7.015 2.697-2.11 6.37-2.504 9.455-1.01 3.087 1.492 5.046 4.608 5.046 8.024zm.172 5.898v-.266h.112v-.055h-.284v.055h.122v.266h.05zm.55 0v-.32h-.086l-.1.228-.1-.23h-.076v.322h.062v-.24l.093.208h.065l.093-.21v.244l.05-.002z"/></g></g></svg>