<svg xmlns="http://www.w3.org/2000/svg" width="40" height="24" viewBox="0 0 40 24"><g fill="none" fill-rule="evenodd"><rect width="40" height="24" fill="#FFF" rx="2.661"/><path fill="#005B9C" d="M17.984 16.71H15.55l1.52-9.346h2.435l-1.52 9.346m-4.48-9.346l-2.32 6.428-.276-1.385-.82-4.202s-.1-.84-1.155-.84H5.102l-.045.157s1.173.244 2.545 1.068l2.114 8.12h2.535l3.873-9.346h-2.618m16.46 6.04l1.28-3.498.718 3.498h-1.998zm2.677 3.306h2.235L32.93 7.364h-1.96c-.903 0-1.123.696-1.123.696l-3.63 8.65h2.536l.508-1.388h3.094l.285 1.388zm-6.232-7.1l.348-2.006s-1.072-.408-2.19-.408c-1.207 0-4.074.53-4.074 3.095 0 2.416 3.366 2.446 3.366 3.714 0 1.268-3.02 1.04-4.015.242l-.362 2.098s1.086.528 2.747.528c1.66 0 4.165-.86 4.165-3.2 0-2.43-3.395-2.655-3.395-3.712 0-1.056 2.37-.92 3.41-.347"/><path fill="#EFA03F" d="M10.91 12.408l-.82-4.202s-.098-.842-1.154-.842H5.102l-.045.158s1.843.382 3.61 1.813c1.69 1.368 2.243 3.073 2.243 3.073"/></g></svg>